<svg xmlns="http://www.w3.org/2000/svg" viewBox="0 0 96 96" role="img" aria-labelledby="leadlab-mark-title">
  <title id="leadlab-mark-title">Lead Lab</title>
  <rect width="96" height="96" rx="22" fill="#ffcc3f"/>
  <circle cx="35" cy="54" r="28" fill="#f7f2e8"/>
  <rect x="17" y="61" width="58" height="8" rx="2" fill="#fff200"/>
  <text x="15" y="65" fill="#0f120e" font-family="Arial Black, Inter, system-ui, sans-serif" font-size="33" font-weight="900" letter-spacing="-2.5">LL</text>
  <path d="M65 15c-9 0-16 7-16 15 0 6 3 10 7 13v5h18v-5c4-3 7-7 7-13 0-8-7-15-16-15Z" fill="#fff200" stroke="#0f120e" stroke-width="4" stroke-linejoin="round"/>
  <path d="M61 42h9M62 50h7" stroke="#0f120e" stroke-width="4" stroke-linecap="round"/>
  <path d="M65 8V3M50 15l-5-4M80 15l5-4" stroke="#0f120e" stroke-width="3" stroke-linecap="round"/>
  <circle cx="48" cy="34" r="5" fill="#62e66f" stroke="#0f120e" stroke-width="2"/>
</svg>
